# xmcd CD database file
#
# Track frame offsets:
#	150
#	77897
#	150728
#
# Disc length: 3071 seconds
#
# Revision: 0
# Processed by: cddbd v1.5.2PL0 Copyright (c) Steve Scherf et al.
# Submitted via: CDex 1.70beta2
#
DISCID=190bfd03
DTITLE=Craig Pruess - Sacred Chants for World Peace - The Gayatri
DYEAR=2011
DGENRE=New Age
TTITLE0=Meditation
TTITLE1=Dusk
TTITLE2=Kundalini Activation
EXTD=YEAR: 2011
EXTT0=
EXTT1=
EXTT2=
PLAYORDER=
